<?xml version="1.0" standalone="no"?>
<!DOCTYPE svg PUBLIC "-//W3C//DTD SVG 20010904//EN" "http://www.w3.org/TR/2001/REC-SVG-20010904/DTD/svg10.dtd">
<svg version="1.0" xmlns="http://www.w3.org/2000/svg" width="900.000000pt" height="1196.000000pt"
     viewBox="0 0 900.000000 1196.000000" preserveAspectRatio="xMidYMid meet">
  <g transform="translate(0.000000,1196.000000) scale(0.100000,-0.100000)" fill="#e90000" stroke="none">
    <path d="M4496 11934 c-24 -62 -52 -415 -101 -1249 -92 -1571 -156 -2284 -271
            -2985 -61 -370 -167 -815 -197 -825 -7 -2 -75 -9 -152 -15 -77 -5 -165 -13
            -196 -16 l-55 -6 -22 73 c-116 392 -219 1200 -382 2984 -58 632 -85 893 -93
            902 -11 11 -43 -253 -107 -897 -185 -1861 -305 -2683 -462 -3172 l-31 -97 -96
            -32 c-53 -18 -136 -47 -184 -65 -49 -19 -92 -34 -97 -34 -4 0 -28 62 -53 138
            -126 378 -220 887 -327 1767 -64 530 -82 664 -101 790 -22 143 -38 215 -49
            228 -37 41 -148 -1077 -295 -2943 -24 -316 -46 -599 -47 -629 l-3 -54 165 -71
            c1025 -442 1859 -1273 2401 -2391 145 -300 239 -542 340 -874 184 -606 283
            -1177 359 -2056 29 -331 44 -416 70 -400 22 14 31 84 75 575 103 1155 328
            2043 710 2809 559 1119 1391 1927 2437 2365 l103 43 -3 59 c-5 97 -99 1279
            -137 1719 -107 1250 -177 1877 -205 1848 -23 -23 -64 -303 -155 -1053 -78
            -642 -155 -1108 -241 -1455 -41 -163 -122 -415 -135 -415 -4 0 -32 10 -61 21
            -29 12 -111 41 -182 65 -71 23 -133 49 -137 57 -19 33 -92 304 -128 476 -118
            558 -203 1204 -351 2671 -72 711 -95 922 -109 975 l-8 30 -6 -25 c-9 -36 -31
            -254 -77 -760 -167 -1847 -267 -2641 -388 -3079 l-25 -93 -56 5 c-31 4 -124
            12 -208 19 -122 9 -153 15 -156 27 -180 603 -300 1462 -391 2816 -36 528 -35
            505 -51 795 -57 993 -77 1267 -105 1398 -13 57 -15 60 -24 36z"/>
  </g>
</svg>
